# xmcd
#
# Track frame offsets:
#	150
#	16295
#	33995
#	49575
#	65093
#	80989
#	98550
#	113430
#	131515
#	149230
#	175564
#	194428
#	211576
#	227700
#	244175
#	259031
#
# Disc length: 3681 seconds
#
# Revision: 0
# Processed by: cddbd v1.5.2PL0 Copyright (c) Steve Scherf et al.
# Submitted via: EasyCDDAExtractor 10.0.3.1
#
DISCID=da0e5f10
DTITLE=Various Artist - HC 2010 - 11
DYEAR=2010
DGENRE=COUNTRY
TTITLE0=Jayme Lynn Scott - Diggin' In
TTITLE1=Gary Allan - Get Off On The Pain
TTITLE2=Lonestar - You're The Reason Why
TTITLE3=Rodney Atkins - Farmer's Daughter
TTITLE4=Chris Janson - 'till A Women Comes Along
TTITLE5=Randy Montana - Ain't Much Left Of Lovin' You
TTITLE6=Trailer Choir - Rollin' Thru The Sunshine  [ Remix ]
TTITLE7=Jimmy White With Jonell Mosser - Just What I Need
TTITLE8=Bret Michaels Feat. Miley Cyrus - Nothing To Lose   [ Country Version 
TTITLE8=]
TTITLE9=Kirk Whalum   Feat. Lalah Hathaway and Doc Powell - The Thrill Is Gone  
TTITLE9=[ Album Version ]
TTITLE10=Kat Edmonson - Just Like Heaven  [ Album Version ]
TTITLE11=Professor Rj Ross - Ventura Highway  [ Radio Edit ]
TTITLE12=Kathy Sasnborn - Small Galaxy  [ Album Version ]
TTITLE13=Marc Staggers - L.O.V.E.  [ Radio Edit 1 ]
TTITLE14=Marc Staggers - L.O.V.E.  [ Radio Edit 2 ]
TTITLE15=Blake Aaron - Desire
EXTD=
EXTT0=
EXTT1=
EXTT2=
EXTT3=
EXTT4=
EXTT5=
EXTT6=
EXTT7=
EXTT8=
EXTT9=
EXTT10=
EXTT11=
EXTT12=
EXTT13=
EXTT14=
EXTT15=
PLAYORDER=
